<?xml version="1.0" encoding="UTF-8"?>
<!--Generator: Apple Native CoreSVG 326-->
<!DOCTYPE svg
PUBLIC "-//W3C//DTD SVG 1.1//EN"
       "http://www.w3.org/Graphics/SVG/1.1/DTD/svg11.dtd">
<svg version="1.1" xmlns="http://www.w3.org/2000/svg" xmlns:xlink="http://www.w3.org/1999/xlink" viewBox="0 0 1378.91 1122.56">
 <g>
  <rect height="1122.56" opacity="0" width="1378.91" x="0" y="0"/>
  <path d="M1029.79 156.738L1042.03 226.074L491.699 226.074C352.539 226.074 271.973 306.152 271.973 443.848L271.973 904.297C271.973 904.607 271.973 904.917 272.006 905.203C205.012 900.429 164.995 858.336 151.367 779.297L70.8008 325.684C53.7109 226.562 95.2148 167.969 195.801 149.902L852.539 34.1797C953.125 16.6016 1012.21 57.6172 1029.79 156.738Z" fill="white" fill-opacity="0.85"/>
  <path d="M662.598 683.105C605.469 683.105 558.594 635.742 558.594 578.613C558.594 521.973 605.469 474.121 662.598 474.121C719.727 474.121 766.602 521.973 766.602 578.613C766.602 635.742 719.727 683.105 662.598 683.105ZM473.633 987.305C431.641 987.305 404.785 960.449 404.785 918.457L404.785 896.484L529.297 784.668C547.852 768.066 566.895 760.254 585.938 760.254C607.422 760.254 627.93 768.555 645.996 785.156L725.586 856.934L923.34 680.664C944.336 662.598 965.332 654.785 990.234 654.785C1014.16 654.785 1036.62 663.574 1056.15 681.152L1246.09 858.398L1246.09 918.945C1246.09 960.938 1218.75 987.305 1178.22 987.305ZM491.699 1055.66L1158.69 1055.66C1260.74 1055.66 1312.01 1004.88 1312.01 904.297L1312.01 443.848C1312.01 343.262 1260.74 292.48 1158.69 292.48L491.699 292.48C389.648 292.48 338.379 343.262 338.379 443.848L338.379 904.297C338.379 1005.37 389.648 1055.66 491.699 1055.66Z" fill="white" fill-opacity="0.85"/>
 </g>
</svg>
